<svg width="289" height="64" viewBox="0 0 289 64" fill="none" xmlns="http://www.w3.org/2000/svg">
<path d="M27.9353 58.1282C25.8993 54.7991 23.4487 52.4218 19.225 49.6789C19.2397 49.6868 13.6855 46.2439 13.6333 46.199C11.7746 45.1184 10.1149 44.1545 9.94508 44.0569C9.58564 43.8504 9.57284 44.2008 10.0914 40.0529C10.2759 38.5766 10.4269 37.1338 10.4269 36.8469C10.4269 36.3427 10.4104 36.3179 9.93656 36.1092C9.13071 35.7543 7.66731 34.6036 6.56156 33.4555C4.35594 31.1653 2.86579 28.5996 2.16858 25.8918C1.77906 24.379 1.65771 23.2314 1.65771 21.0603C1.65771 13.488 4.77042 7.97319 11.2468 4.07131C15.9405 1.2434 22.8067 0.346564 29.3549 1.70607C33.2002 2.50442 36.4237 4.23648 38.946 6.85966C40.5901 8.56953 41.4064 10.1093 41.8255 12.2917C41.9555 12.9685 42.3254 14.2896 42.6474 15.2275C43.417 17.4682 43.4296 17.9361 42.754 19.1874C42.2079 20.1988 42.1457 20.7637 42.4798 21.6784C42.6809 22.2291 44.8298 25.3045 45.9519 26.6475C46.9715 27.8678 47.0732 28.3294 46.4765 29.028C46.2622 29.2789 45.9547 29.4414 45.3699 29.613C44.8373 29.7693 44.4154 29.9813 44.1377 30.2322C43.729 30.6014 43.7156 30.6388 43.7212 31.3895C43.7262 32.054 43.7883 32.2832 44.1539 32.9866C44.8604 34.3459 44.7126 34.8628 43.4846 35.3274C42.7034 35.6229 42.611 35.8362 43.182 36.0256C44.0146 36.3018 44.2472 37.0271 43.6455 37.4711C42.8016 38.0937 42.6193 38.3527 42.6193 38.9287C42.6193 39.2279 42.722 39.6956 42.8475 39.9682C43.2963 40.9427 43.0897 42.1385 42.3692 42.7358C41.5448 43.4192 40.2114 43.557 36.2954 43.3635C33.6205 43.2314 33.2881 43.2349 32.8939 43.3993C32.5937 43.5247 32.4064 43.7013 32.2948 43.9642C32.2056 44.1747 32.0228 45.3914 31.8886 46.6681C31.7544 47.9449 31.4679 50.2428 31.252 51.7746C30.8192 54.8449 30.7177 55.7584 30.4383 59.1008C30.3341 60.3479 30.2145 61.4598 30.1725 61.5715C30.1725 61.5715 28.1092 58.4126 27.9353 58.1282ZM20.275 36.6621L20.9846 35.9865L21.0423 32.8087C21.0958 29.8639 21.1166 29.6112 21.3266 29.3634C21.4513 29.2164 22.7034 27.9665 24.1092 26.586C26.9333 23.8127 27.1668 23.5395 26.9159 23.302C26.7784 23.1719 26.294 23.5906 23.7188 26.0655C21.0833 28.5983 20.6697 29.0422 20.5773 29.4371C20.5188 29.6872 20.4697 31.166 20.4682 32.7234L20.4654 35.5551L19.8308 36.2105C19.2316 36.8294 19.0952 37.0866 19.2731 37.2618C19.4282 37.4146 19.5796 37.324 20.275 36.6621ZM22.7731 31.8317C22.7731 31.5544 22.8278 31.1835 22.8946 31.0075C22.9615 30.8315 24.199 29.511 25.6447 28.0729C27.0904 26.6349 28.5981 25.1167 28.9951 24.6992C30.019 23.6222 30.135 23.5827 32.2734 23.5827C33.2592 23.5827 34.2059 23.5302 34.3771 23.4661C34.8807 23.2775 36.3885 21.7701 36.3885 21.4553C36.3885 21.05 36.8787 20.6271 37.3484 20.6271C37.5719 20.6271 37.8734 20.5253 38.046 20.3915C38.3414 20.1626 38.35 20.1206 38.35 18.9101C38.35 17.4738 38.1979 16.9805 37.6725 16.7128C37.4803 16.6149 37.1374 16.5348 36.9106 16.5348C36.4353 16.5348 36.2731 16.2711 36.2731 15.4986C36.2731 14.903 36.058 14.5229 35.4311 14.0111C35.1477 13.7797 34.4683 13.1731 33.9214 12.663L32.9269 11.7356V11.0576C32.9269 10.4727 32.8992 10.3849 32.725 10.4187C32.5532 10.4521 32.5231 10.5912 32.5231 11.3518V12.2457L33.4462 13.0533C33.9539 13.4974 34.6678 14.1474 35.0327 14.4975C35.6623 15.1018 35.6962 15.1627 35.6966 15.6924C35.6973 16.6298 36.2186 17.2168 37.0504 17.2168C37.6519 17.2168 37.7731 17.4747 37.7731 18.7544V19.9158L37.2054 19.99C36.5091 20.081 35.9994 20.5083 35.8247 21.1475C35.7014 21.5986 34.7685 22.6182 34.2326 22.8876C34.0786 22.9651 33.2666 23.0143 32.1441 23.0143C31.134 23.0143 30.1531 23.0674 29.9644 23.1322C29.7519 23.2052 28.231 24.653 25.9665 26.938L22.3116 30.626V31.4809C22.3116 32.26 22.332 32.3358 22.5423 32.3358C22.7384 32.3358 22.7731 32.26 22.7731 31.8317ZM17.9269 27.8749L17.9846 26.7697L18.9488 25.8153C19.7342 25.0379 19.8986 24.8162 19.8353 24.6197C19.7925 24.487 19.721 24.3785 19.6764 24.3785C19.5479 24.3785 17.6203 26.3406 17.4781 26.6161C17.3387 26.8864 17.2995 28.8378 17.4309 28.9673C17.4754 29.0112 17.5923 29.032 17.6905 29.0136C17.8324 28.987 17.8811 28.7523 17.9269 27.8749ZM9.96541 24.1017C9.96541 23.3954 10.1017 23.1129 10.7374 22.5013C11.5424 21.7267 12.0166 21.542 13.2084 21.539C14.177 21.5366 14.2154 21.526 14.7661 21.1102L15.3308 20.684L18.7923 20.6236C22.6009 20.5571 22.3999 20.5946 23.4471 19.7563C23.7861 19.485 24.1756 19.2571 24.3125 19.2498C24.4495 19.2425 24.7952 19.2297 25.0808 19.2214C25.5258 19.2083 25.6053 19.1696 25.6369 18.9504C25.6725 18.7033 25.6421 18.6946 24.7465 18.6946H23.8193L23.2403 19.2012C22.9219 19.4798 22.5437 19.7704 22.3999 19.8468C22.217 19.9441 21.0881 20.0013 18.6393 20.0372L15.14 20.0886L14.5811 20.5239C14.0334 20.9505 13.9991 20.9602 12.8714 21.01C11.5746 21.0674 11.4434 21.1179 10.5026 21.9222C9.65057 22.6506 9.50387 22.9354 9.50387 23.8613C9.50387 24.53 9.52736 24.6058 9.73464 24.6058C9.93072 24.6058 9.96541 24.53 9.96541 24.1017ZM25.9775 22.056C26.2141 21.9041 26.711 21.7259 27.0816 21.6601C27.5995 21.5682 27.8858 21.433 28.3179 21.0766C29.402 20.1824 29.755 19.5126 29.5076 18.8195C29.3245 18.3064 29.0699 18.457 28.9868 19.1275C28.9051 19.7868 28.7676 19.9833 27.9262 20.6436C27.4876 20.9878 27.2685 21.0818 26.9052 21.0818C26.2948 21.0818 25.6807 21.3801 25.4193 21.8036C25.0622 22.3822 25.3012 22.4903 25.9775 22.056ZM33.4918 21.3189C33.5804 21.2637 33.621 21.1366 33.582 21.0365C33.5215 20.8812 33.2659 20.8545 31.8412 20.8545C30.1725 20.8545 29.9491 20.9058 30.0862 21.2578C30.1381 21.3912 30.4557 21.4225 31.7406 21.4211C32.6152 21.4202 33.4033 21.3742 33.4918 21.3189ZM7.35982 18.9666C7.4602 18.9287 7.54233 18.8008 7.54233 18.6825C7.54233 18.4872 7.44578 18.4673 6.50025 18.4673C5.65119 18.4673 5.44503 18.501 5.38728 18.6493C5.34829 18.7493 5.38886 18.8764 5.47744 18.9317C5.65984 19.0455 7.08147 19.0719 7.35982 18.9666ZM33.7923 18.5809C33.7923 18.3024 33.774 18.2965 32.863 18.2842C31.4402 18.2651 31.1962 18.0404 31.1962 16.7491C31.1962 16.3749 31.1223 15.928 31.0319 15.7559C30.9416 15.5838 30.4613 15.1143 29.9646 14.7126C29.4679 14.3108 28.2827 13.3151 27.3308 12.4997C25.0725 10.5654 25.2325 10.6797 25.0231 10.8509C24.9279 10.9288 24.85 11.0343 24.85 11.0855C24.85 11.1843 27.1841 13.2018 29.2175 14.8605C29.8898 15.409 30.4733 15.9205 30.5142 15.9973C30.5551 16.0741 30.6181 16.5039 30.6541 16.9525C30.7313 17.9119 30.9535 18.3932 31.4614 18.7015C31.7665 18.8868 32.0014 18.9205 32.8116 18.8954C33.7726 18.8657 33.7923 18.8594 33.7923 18.5809ZM13.8101 16.9343C15.2263 15.659 15.4778 15.5117 16.2388 15.5117C16.9414 15.5117 18.1906 14.7033 17.9878 14.3799C17.845 14.1523 17.3992 14.2637 17.0977 14.6023C16.8389 14.8927 16.7111 14.9434 16.2354 14.9439C15.2438 14.9451 14.9405 15.1041 13.7154 16.2652C13.0808 16.8667 12.3945 17.4292 12.1903 17.5152C11.9861 17.6012 11.4625 17.6715 11.0268 17.6715C10.1842 17.6715 10.0602 17.7137 10.1588 17.9668C10.2062 18.0886 10.4883 18.1262 11.3537 18.1262H12.4866L13.8101 16.9343ZM28.6577 16.6576C28.6577 16.5249 26.8992 15.0483 26.4368 14.7927C26.1328 14.6248 25.8909 14.5958 25.1633 14.6402C24.395 14.687 24.2062 14.7417 23.8576 15.0181C22.9816 15.7125 22.872 15.7387 20.8368 15.7388C19.2208 15.7389 18.9483 15.7645 18.8873 15.921C18.765 16.2349 19.0917 16.3039 20.7093 16.3057C22.5834 16.3077 23.4062 16.1756 23.8069 15.8082C24.279 15.3754 24.5565 15.2843 25.4038 15.2843C26.2971 15.2843 26.3743 15.3245 27.53 16.3908C28.1002 16.9169 28.2226 16.9835 28.4242 16.8772C28.5526 16.8095 28.6577 16.7107 28.6577 16.6576ZM33.7346 15.3507C33.7346 15.1951 33.321 14.8329 30.1535 12.215C28.9054 11.1834 27.4942 9.99408 27.0175 9.57206C26.186 8.83582 25.8679 8.67539 25.7169 8.91607C25.544 9.1916 25.8043 9.42566 31.6191 14.2233C32.4653 14.9215 33.2225 15.515 33.3019 15.5423C33.5066 15.6126 33.7346 15.5116 33.7346 15.3507ZM22.6951 14.0415C23.0232 13.9186 23.8116 13.2627 23.8116 13.1127C23.8116 12.9163 23.222 13.0132 22.8749 13.2666C22.5786 13.4828 22.3343 13.5311 21.293 13.5792C20.124 13.6331 20.0597 13.649 20.0247 13.8918C19.9885 14.1431 20.0089 14.1475 21.1999 14.1475C21.8665 14.1475 22.5393 14.0998 22.6951 14.0415ZM17.998 12.2435C18.5636 11.8855 18.6202 11.874 19.8157 11.874C20.8406 11.874 21.0616 11.8432 21.1205 11.692C21.2379 11.3904 20.9282 11.3092 19.6538 11.3074C18.4598 11.3057 18.4274 11.3126 17.8116 11.7035C17.2067 12.0874 17.146 12.1014 16.0815 12.1014C14.8662 12.1014 14.7643 12.0622 13.9259 11.2734C13.6169 10.9827 13.3789 10.8448 13.2624 10.8888C12.9204 11.0181 13.0814 11.2955 13.9023 11.9916L14.7238 12.6882L16.069 12.6505C17.3599 12.6144 17.4377 12.598 17.998 12.2435ZM21.5127 9.83658C21.8386 9.51557 21.85 9.46732 21.85 8.41562C21.85 7.56085 21.8155 7.32694 21.6893 7.32694C21.4547 7.32694 21.3885 7.58687 21.3885 8.50711C21.3885 9.418 21.2859 9.60048 20.7737 9.60048C20.516 9.60048 20.2454 9.42359 19.6338 8.85511C18.9842 8.25139 18.8006 8.13523 18.6678 8.24381C18.3813 8.47809 18.4834 8.64743 19.3755 9.41695C20.1404 10.0768 20.3039 10.1689 20.7113 10.1689C21.0705 10.1689 21.2517 10.0937 21.5127 9.83658ZM28.1962 7.84796C28.1962 6.1927 28.1522 6.02141 27.7635 6.16224C27.6588 6.20017 27.6197 6.59305 27.6208 7.59488C27.6227 9.19599 27.6777 9.4868 27.9789 9.4868C28.1816 9.4868 28.1962 9.37719 28.1962 7.84796Z" fill="#1B1B24"/>
<path d="M90.24 21.06H96.8L96.64 22.18H94.592L94.368 22.404L91.52 42.5H89.216L78.592 26.148H78.432L76.32 41.156L76.544 41.38H79.168L79.008 42.5H72.256L72.416 41.38H74.656L74.88 41.156L77.536 22.404L77.28 22.18H75.104L75.264 21.06H80.032L90.624 37.412H90.784L92.928 22.404L92.672 22.18H90.08L90.24 21.06ZM102.598 42.82C101.425 42.82 100.358 42.5853 99.398 42.116C98.4593 41.6253 97.7127 40.8893 97.158 39.908C96.6247 38.9267 96.358 37.6893 96.358 36.196C96.358 34.404 96.742 32.836 97.51 31.492C98.2993 30.1267 99.366 29.0707 100.71 28.324C102.075 27.556 103.601 27.172 105.286 27.172C106.075 27.172 106.822 27.268 107.526 27.46C108.251 27.6307 108.849 27.94 109.318 28.388C109.787 28.836 110.022 29.4333 110.022 30.18C110.022 30.9267 109.766 31.6093 109.254 32.228C108.742 32.8467 108.017 33.3907 107.078 33.86C106.161 34.3293 105.062 34.7133 103.782 35.012C102.502 35.3107 101.083 35.524 99.526 35.652V34.628C100.721 34.5213 101.755 34.3293 102.63 34.052C103.505 33.7533 104.23 33.4013 104.806 32.996C105.382 32.5907 105.809 32.1533 106.086 31.684C106.385 31.1933 106.534 30.692 106.534 30.18C106.534 29.54 106.385 29.0707 106.086 28.772C105.787 28.452 105.361 28.292 104.806 28.292C104.059 28.292 103.387 28.5373 102.79 29.028C102.214 29.4973 101.713 30.1267 101.286 30.916C100.859 31.7053 100.529 32.58 100.294 33.54C100.081 34.4787 99.974 35.428 99.974 36.388C99.974 37.5613 100.134 38.5213 100.454 39.268C100.795 39.9933 101.243 40.5267 101.798 40.868C102.353 41.2093 102.961 41.38 103.622 41.38C104.433 41.38 105.222 41.1133 105.99 40.58C106.779 40.0467 107.43 39.3853 107.942 38.596L108.934 39.14C108.55 39.8013 108.049 40.4093 107.43 40.964C106.833 41.5187 106.129 41.9667 105.318 42.308C104.529 42.6493 103.622 42.82 102.598 42.82ZM126.586 39.396L127.578 39.94C127.066 41.028 126.49 41.7853 125.85 42.212C125.231 42.6173 124.527 42.82 123.738 42.82C122.884 42.82 122.18 42.596 121.626 42.148C121.071 41.6787 120.762 40.9747 120.698 40.036C120.164 40.8893 119.482 41.572 118.65 42.084C117.839 42.5747 116.89 42.82 115.802 42.82C114.308 42.82 113.252 42.3827 112.634 41.508C112.036 40.6333 111.844 39.4707 112.058 38.02L113.306 28.836L113.05 28.612H110.906L111.066 27.492C111.962 27.492 112.89 27.4813 113.85 27.46C114.81 27.4173 115.716 27.3427 116.57 27.236L116.794 27.492L115.354 38.052C115.268 38.6707 115.258 39.2253 115.322 39.716C115.386 40.2067 115.546 40.58 115.802 40.836C116.058 41.092 116.431 41.22 116.922 41.22C117.882 41.22 118.767 40.708 119.578 39.684C120.41 38.6387 120.964 37.1453 121.242 35.204L122.138 28.836L121.914 28.612H119.738L119.898 27.492C120.815 27.492 121.754 27.4813 122.714 27.46C123.674 27.4173 124.58 27.3427 125.434 27.236L125.658 27.492L123.962 39.3C123.876 40.004 123.898 40.5053 124.026 40.804C124.175 41.0813 124.399 41.22 124.698 41.22C125.039 41.22 125.359 41.0493 125.658 40.708C125.978 40.3667 126.287 39.9293 126.586 39.396ZM129.212 42.5L131.164 28.836L130.908 28.612H128.892L129.052 27.492C129.884 27.492 130.737 27.4707 131.612 27.428C132.487 27.364 133.351 27.3 134.204 27.236L134.428 27.492L133.948 30.948H134.172C134.535 30.2867 134.972 29.668 135.484 29.092C136.017 28.4947 136.604 28.0253 137.244 27.684C137.884 27.3213 138.556 27.14 139.26 27.14C139.9 27.14 140.412 27.332 140.796 27.716C141.18 28.1 141.372 28.5907 141.372 29.188C141.372 29.8493 141.169 30.436 140.764 30.948C140.38 31.46 139.868 31.716 139.228 31.716C138.695 31.716 138.279 31.5453 137.98 31.204C137.681 30.8627 137.532 30.4253 137.532 29.892C137.532 29.572 137.596 29.252 137.724 28.932C136.828 29.38 135.964 30.2227 135.132 31.46C134.3 32.6973 133.745 34.2013 133.468 35.972L132.54 42.5H129.212ZM140.751 36.164C140.751 34.82 140.953 33.604 141.359 32.516C141.785 31.4067 142.34 30.4573 143.023 29.668C143.727 28.8573 144.505 28.2387 145.359 27.812C146.233 27.3853 147.119 27.172 148.015 27.172C148.719 27.172 149.348 27.3 149.903 27.556C150.479 27.812 150.969 28.1853 151.375 28.676C151.78 29.1453 152.079 29.7 152.271 30.34L153.775 27.492H155.791L154.127 39.3C154.041 40.004 154.063 40.5053 154.191 40.804C154.34 41.0813 154.564 41.22 154.863 41.22C155.204 41.22 155.524 41.0493 155.823 40.708C156.143 40.3667 156.452 39.9293 156.751 39.396L157.743 39.94C157.231 41.028 156.655 41.7853 156.015 42.212C155.375 42.6173 154.671 42.82 153.903 42.82C153.071 42.82 152.377 42.596 151.823 42.148C151.289 41.7 150.969 41.028 150.863 40.132C150.308 41.0067 149.636 41.6787 148.847 42.148C148.057 42.596 147.183 42.82 146.223 42.82C145.199 42.82 144.271 42.5747 143.439 42.084C142.607 41.572 141.945 40.8253 141.455 39.844C140.985 38.8627 140.751 37.636 140.751 36.164ZM144.431 36.484C144.431 38.084 144.676 39.2787 145.167 40.068C145.679 40.836 146.351 41.22 147.183 41.22C148.079 41.22 148.857 40.8573 149.519 40.132C150.18 39.3853 150.703 38.4253 151.087 37.252C151.471 36.0787 151.663 34.8307 151.663 33.508C151.663 31.8867 151.385 30.692 150.831 29.924C150.276 29.1347 149.572 28.74 148.719 28.74C147.844 28.74 147.087 29.1133 146.447 29.86C145.807 30.5853 145.305 31.5347 144.943 32.708C144.601 33.8813 144.431 35.14 144.431 36.484ZM165.898 39.396L166.858 39.94C166.346 41.028 165.77 41.7853 165.13 42.212C164.512 42.6173 163.818 42.82 163.05 42.82C162.005 42.82 161.194 42.4893 160.618 41.828C160.042 41.1453 159.85 40.1107 160.042 38.724L162.602 20.484L162.378 20.26H160.202L160.362 19.14C161.28 19.14 162.208 19.1293 163.146 19.108C164.106 19.0867 165.013 19.0227 165.866 18.916L166.09 19.14L163.274 39.3C163.168 40.004 163.189 40.5053 163.338 40.804C163.488 41.0813 163.701 41.22 163.978 41.22C164.32 41.22 164.65 41.0493 164.97 40.708C165.29 40.3667 165.6 39.9293 165.898 39.396ZM182.874 22.18L182.618 22.404L179.994 41.156L180.25 41.38H182.394L182.234 42.5H173.562L173.722 41.38H175.93L176.154 41.156L178.778 22.404L178.554 22.18H176.41L176.57 21.06H185.242L185.082 22.18H182.874ZM201.25 39.396L202.21 39.94C201.698 41.028 201.122 41.7853 200.482 42.212C199.863 42.6173 199.159 42.82 198.37 42.82C197.346 42.82 196.535 42.4787 195.938 41.796C195.341 41.1133 195.159 40.0253 195.394 38.532L196.386 32.132C196.493 31.5133 196.525 30.948 196.482 30.436C196.439 29.924 196.279 29.5187 196.002 29.22C195.746 28.9 195.319 28.74 194.722 28.74C194.338 28.74 193.911 28.836 193.442 29.028C192.994 29.1987 192.557 29.4973 192.13 29.924C191.703 30.3507 191.319 30.9373 190.978 31.684C190.637 32.4093 190.391 33.3267 190.242 34.436L189.122 42.5H185.794L187.714 28.836L187.458 28.612H185.442L185.602 27.492C186.434 27.492 187.287 27.4813 188.162 27.46C189.037 27.4387 189.901 27.396 190.754 27.332L190.978 27.556L190.658 29.764H190.882C191.373 29.0173 192.023 28.3987 192.834 27.908C193.666 27.4173 194.658 27.172 195.81 27.172C197.346 27.172 198.445 27.6093 199.106 28.484C199.767 29.3587 199.981 30.5213 199.746 31.972L198.626 39.3C198.519 40.004 198.541 40.5053 198.69 40.804C198.839 41.0813 199.053 41.22 199.33 41.22C199.671 41.22 199.991 41.0493 200.29 40.708C200.61 40.3667 200.93 39.9293 201.25 39.396ZM215.824 30.532H205.552C204.848 30.532 204.304 30.6813 203.92 30.98C203.557 31.2787 203.344 31.6627 203.28 32.132H202.16C202.288 31.2787 202.522 30.5 202.864 29.796C203.226 29.092 203.76 28.5373 204.464 28.132C205.168 27.7053 206.096 27.492 207.248 27.492H216.272L215.824 30.532ZM211.216 29.956L209.968 38.884C209.882 39.588 209.914 40.132 210.064 40.516C210.234 40.9 210.554 41.092 211.024 41.092C211.301 41.092 211.568 41.0067 211.824 40.836C212.101 40.644 212.357 40.324 212.592 39.876C212.826 39.4067 212.997 38.7453 213.104 37.892H214.224C214.01 39.556 213.52 40.7933 212.752 41.604C212.005 42.4147 211.045 42.82 209.872 42.82C209.424 42.82 208.986 42.756 208.56 42.628C208.154 42.5 207.792 42.276 207.472 41.956C207.152 41.6147 206.917 41.1667 206.768 40.612C206.64 40.036 206.629 39.3 206.736 38.404L207.92 29.956H211.216ZM222.463 42.82C221.29 42.82 220.223 42.5853 219.263 42.116C218.324 41.6253 217.578 40.8893 217.023 39.908C216.49 38.9267 216.223 37.6893 216.223 36.196C216.223 34.404 216.607 32.836 217.375 31.492C218.164 30.1267 219.231 29.0707 220.575 28.324C221.94 27.556 223.466 27.172 225.151 27.172C225.94 27.172 226.687 27.268 227.391 27.46C228.116 27.6307 228.714 27.94 229.183 28.388C229.652 28.836 229.887 29.4333 229.887 30.18C229.887 30.9267 229.631 31.6093 229.119 32.228C228.607 32.8467 227.882 33.3907 226.943 33.86C226.026 34.3293 224.927 34.7133 223.647 35.012C222.367 35.3107 220.948 35.524 219.391 35.652V34.628C220.586 34.5213 221.62 34.3293 222.495 34.052C223.37 33.7533 224.095 33.4013 224.671 32.996C225.247 32.5907 225.674 32.1533 225.951 31.684C226.25 31.1933 226.399 30.692 226.399 30.18C226.399 29.54 226.25 29.0707 225.951 28.772C225.652 28.452 225.226 28.292 224.671 28.292C223.924 28.292 223.252 28.5373 222.655 29.028C222.079 29.4973 221.578 30.1267 221.151 30.916C220.724 31.7053 220.394 32.58 220.159 33.54C219.946 34.4787 219.839 35.428 219.839 36.388C219.839 37.5613 219.999 38.5213 220.319 39.268C220.66 39.9933 221.108 40.5267 221.663 40.868C222.218 41.2093 222.826 41.38 223.487 41.38C224.298 41.38 225.087 41.1133 225.855 40.58C226.644 40.0467 227.295 39.3853 227.807 38.596L228.799 39.14C228.415 39.8013 227.914 40.4093 227.295 40.964C226.698 41.5187 225.994 41.9667 225.183 42.308C224.394 42.6493 223.487 42.82 222.463 42.82ZM231.155 42.5L233.107 28.836L232.851 28.612H230.835L230.995 27.492C231.827 27.492 232.68 27.4707 233.555 27.428C234.429 27.364 235.293 27.3 236.147 27.236L236.371 27.492L235.891 30.948H236.115C236.477 30.2867 236.915 29.668 237.427 29.092C237.96 28.4947 238.547 28.0253 239.187 27.684C239.827 27.3213 240.499 27.14 241.203 27.14C241.843 27.14 242.355 27.332 242.739 27.716C243.123 28.1 243.315 28.5907 243.315 29.188C243.315 29.8493 243.112 30.436 242.707 30.948C242.323 31.46 241.811 31.716 241.171 31.716C240.637 31.716 240.221 31.5453 239.923 31.204C239.624 30.8627 239.475 30.4253 239.475 29.892C239.475 29.572 239.539 29.252 239.667 28.932C238.771 29.38 237.907 30.2227 237.075 31.46C236.243 32.6973 235.688 34.2013 235.411 35.972L234.483 42.5H231.155ZM258.878 39.396L259.838 39.94C259.326 41.028 258.75 41.7853 258.11 42.212C257.491 42.6173 256.787 42.82 255.998 42.82C254.974 42.82 254.163 42.4787 253.566 41.796C252.968 41.1133 252.787 40.0253 253.022 38.532L254.014 32.132C254.12 31.5133 254.152 30.948 254.11 30.436C254.067 29.924 253.907 29.5187 253.63 29.22C253.374 28.9 252.947 28.74 252.35 28.74C251.966 28.74 251.539 28.836 251.07 29.028C250.622 29.1987 250.184 29.4973 249.758 29.924C249.331 30.3507 248.947 30.9373 248.606 31.684C248.264 32.4093 248.019 33.3267 247.87 34.436L246.75 42.5H243.422L245.342 28.836L245.086 28.612H243.07L243.23 27.492C244.062 27.492 244.915 27.4813 245.79 27.46C246.664 27.4387 247.528 27.396 248.382 27.332L248.606 27.556L248.286 29.764H248.51C249 29.0173 249.651 28.3987 250.462 27.908C251.294 27.4173 252.286 27.172 253.438 27.172C254.974 27.172 256.072 27.6093 256.734 28.484C257.395 29.3587 257.608 30.5213 257.374 31.972L256.254 39.3C256.147 40.004 256.168 40.5053 256.318 40.804C256.467 41.0813 256.68 41.22 256.958 41.22C257.299 41.22 257.619 41.0493 257.918 40.708C258.238 40.3667 258.558 39.9293 258.878 39.396ZM267.324 42.82C266.151 42.82 265.084 42.5853 264.124 42.116C263.186 41.6253 262.439 40.8893 261.884 39.908C261.351 38.9267 261.084 37.6893 261.084 36.196C261.084 34.404 261.468 32.836 262.236 31.492C263.026 30.1267 264.092 29.0707 265.436 28.324C266.802 27.556 268.327 27.172 270.012 27.172C270.802 27.172 271.548 27.268 272.252 27.46C272.978 27.6307 273.575 27.94 274.044 28.388C274.514 28.836 274.748 29.4333 274.748 30.18C274.748 30.9267 274.492 31.6093 273.98 32.228C273.468 32.8467 272.743 33.3907 271.804 33.86C270.887 34.3293 269.788 34.7133 268.508 35.012C267.228 35.3107 265.81 35.524 264.252 35.652V34.628C265.447 34.5213 266.482 34.3293 267.356 34.052C268.231 33.7533 268.956 33.4013 269.532 32.996C270.108 32.5907 270.535 32.1533 270.812 31.684C271.111 31.1933 271.26 30.692 271.26 30.18C271.26 29.54 271.111 29.0707 270.812 28.772C270.514 28.452 270.087 28.292 269.532 28.292C268.786 28.292 268.114 28.5373 267.516 29.028C266.94 29.4973 266.439 30.1267 266.012 30.916C265.586 31.7053 265.255 32.58 265.02 33.54C264.807 34.4787 264.7 35.428 264.7 36.388C264.7 37.5613 264.86 38.5213 265.18 39.268C265.522 39.9933 265.97 40.5267 266.524 40.868C267.079 41.2093 267.687 41.38 268.348 41.38C269.159 41.38 269.948 41.1133 270.716 40.58C271.506 40.0467 272.156 39.3853 272.668 38.596L273.66 39.14C273.276 39.8013 272.775 40.4093 272.156 40.964C271.559 41.5187 270.855 41.9667 270.044 42.308C269.255 42.6493 268.348 42.82 267.324 42.82ZM288.155 30.532H277.883C277.179 30.532 276.635 30.6813 276.251 30.98C275.888 31.2787 275.675 31.6627 275.611 32.132H274.491C274.619 31.2787 274.854 30.5 275.195 29.796C275.558 29.092 276.091 28.5373 276.795 28.132C277.499 27.7053 278.427 27.492 279.579 27.492H288.603L288.155 30.532ZM283.547 29.956L282.299 38.884C282.214 39.588 282.246 40.132 282.395 40.516C282.566 40.9 282.886 41.092 283.355 41.092C283.632 41.092 283.899 41.0067 284.155 40.836C284.432 40.644 284.688 40.324 284.923 39.876C285.158 39.4067 285.328 38.7453 285.435 37.892H286.555C286.342 39.556 285.851 40.7933 285.083 41.604C284.336 42.4147 283.376 42.82 282.203 42.82C281.755 42.82 281.318 42.756 280.891 42.628C280.486 42.5 280.123 42.276 279.803 41.956C279.483 41.6147 279.248 41.1667 279.099 40.612C278.971 40.036 278.96 39.3 279.067 38.404L280.251 29.956H283.547Z" fill="#1B1B24"/>
</svg>
